# xmcd
#
# Track frame offsets:
#	150
#	20223
#	42519
#	61790
#	103015
#	126996
#	138916
#	166161
#	198909
#	214916
#	227349
#	238678
#	250635
#	263920
#	289395
#	304058
#
# Disc length: 4363 seconds
#
# Revision: 1
# Processed by: cddbd v1.5.1PL0 Copyright (c) Steve Scherf et al.
# Submitted via: audiograbber 1.83.01
#
DISCID=e6110910
DTITLE=Blues Project - Blues Project  Anthology Disc 2
DYEAR=1900
DGENRE=Blues
TTITLE0=I Can't Keep From Crying Sometimes
TTITLE1=Steve's Song
TTITLE2=You Can't Catch Me
TTITLE3=Two Trains Running
TTITLE4=Wake Me, Shake Me
TTITLE5=Cheryl Going Home
TTITLE6=Flute Thing
TTITLE7=Caress Me Baby
TTITLE8=Fly Away
TTITLE9=No Time Like The Right Time
TTITLE10=Mean Old Southern
TTITLE11=Gentle Dreams
TTITLE12=Lost In The Shuffle
TTITLE13=Black Night
TTITLE14=Visions Of Flowers
TTITLE15=Little Rain
EXTD=
EXTT0=
EXTT1=
EXTT2=
EXTT3=
EXTT4=
EXTT5=
EXTT6=
EXTT7=
EXTT8=
EXTT9=
EXTT10=
EXTT11=
EXTT12=
EXTT13=
EXTT14=
EXTT15=
PLAYORDER=
